<svg xmlns="http://www.w3.org/2000/svg" version="1.1" xmlns:xlink="http://www.w3.org/1999/xlink" xmlns:svgjs="http://svgjs.dev/svgjs" width="308" height="304" viewBox="0 0 2000 2250"><g transform="matrix(1,0,0,1,0.000015624999718966137,0)"><svg viewBox="0 0 320 360" data-background-color="#fafafa" preserveAspectRatio="xMidYMid meet" height="2250" width="2000" xmlns="http://www.w3.org/2000/svg" xmlns:xlink="http://www.w3.org/1999/xlink"><g id="tight-bounds" transform="matrix(1,0,0,1,0.0000025000000505315256,0)"><svg viewBox="0 0 320 360" height="360" width="320"><g><svg></svg></g><g><svg viewBox="0 0 320 360" height="360" width="320"><g>
<path transform="translate(-19.44751,3.1739) scale(3.53591,3.53591)" d="M67.6 10.7c0.2 0 1.8 0.8 2.7 1.1-0.3 0.1-1-0.2-1.8-0.5 0.2 0 0.6 0.1 1 0.3-0.2-0.2-1.7-0.7-1.9-0.9M52.7 7.6c0.3-0.1 3.8 0.4 5.4 0.5 0.1-0.1-0.2-0.1-0.6-0.2 0.5-0.1 1.5 0.2 2.2 0.3-2.1 0.1-4.4-0.5-6.4-0.3-0.7 0-0.2-0.2-0.6-0.3M49.8 7.6c1.8 0 3.2 0 0.6 0.2-0.3-0.1-0.7-0.1-0.6-0.2M78.1 15.9c0.2 0 1 0.9 1.4 1.2-0.1 0.1-0.9-0.7-1.3-1 0.1 0.1 0 0-0.1-0.2M76.1 14.6c-0.8-0.7-1.1-0.7-1.2-1.1 0.7 0.4 1.2 0.8 1.2 1.1M63.2 8.3c0.1-0.1 0.3 0.1 0.8 0.2-0.6-0.1-0.5 0-0.3 0.2-0.7-0.1-0.9-0.2-0.7-0.4 0.4 0.2 0.5 0.1 0.2 0M34.8 9.5c0-0.1 0.4-0.3 0.7-0.4-0.3 0.2-0.2 0.3 0.3 0.1 0 0.1-0.6 0.3-1 0.5 0.2-0.1 0.4-0.4 0-0.2M65.2 7.3c-0.3 0.1-1.4-0.5-2.5-0.7-0.6-0.2 2.4 0.5 2.5 0.7M6.2 56.7c0.6 2.5 0.2 2.4 0 0M6.3 41.7c0.1-0.4 0.2-1.5 0.3-1.4-0.3 2.4-0.8 3.5-0.9 5.3 0.3-1.6-0.1 0.9-0.2 1.5 0.1 0.8 0.1-0.5 0.3-0.3 0.2 0.3-0.4 4.5-0.2 2.2-0.2 2.1 0 4.4 0.4 5-0.5 3.2 2 10.4 2.5 11.9 0.1 0.1 0-0.5 0.2-0.1 0.2 1.3 1.1 2.2 1.4 3.6 0.3 0.4 1.5 2.6 1.7 3.1 0.4 0.8 0.6 0.7 1 1.5 1.2 2.3 3.1 4.5 4.9 6.6 5.8 6.8 14.7 12.4 24.6 14.4 9.9 2.1 20.3 0.6 28.4-3.3 0.5-0.3 0.4-0.4 1-0.6 2.8-0.9 6.2-3.8 8.1-4.9 0.9-1 3.3-2.7 3.6-3.7 1.7-1.4 3.4-3.7 4.3-5.2 0.5-0.8 0.9-0.8 1.1-1.3-0.1 0 1.6-2.1 2.1-3.3-0.2 0-0.5 0.6-0.5 0 3.6-6.9 5.6-16.2 4.5-22.6 0.2 7.9-1.8 16.7-5.6 22.3-1.7 3.6-5.2 7.5-8.4 10.3-0.5 0.5-1 1.1-1.6 1.5-1.9 1.6-4 2.9-6.2 4.1-5.2 2.9-11 5.4-17.8 5.5 11.7-1 22.2-6.9 28-14.1-4.4 4.3-6.3 6-11.2 8.5-0.4 0.7-3.7 2.1-5.9 2.7 1.3-0.6 4-1.6 4.9-2.4-7.3 3.5-15.4 5.5-23 4.4 2.9 0 7 0.1 10.9-0.6 0.6-0.2 0.9-0.4 1.6-0.5 7.6-1.7 14.9-5.4 20.1-10.6-3 2.7-7.5 5.9-10.4 6.9 2.7-1.5 7.6-4.4 9.2-6.6-3.2 3.2-9.2 6.4-13 7.8-0.6 0.1 0.4-0.4-0.6 0-1.2 0.3-0.7 0.3-1 0.5-4.6 1.3-9.9 2.4-14.3 2-0.8-0.1-1.1-0.3-1.8-0.3-0.8-0.1-1.5-0.1-2.4-0.1-3.5-0.4-7.3-1.8-10.1-3-1.5-0.7-3-1.2-4.5-2.1-1.2-0.7-2.2-1.5-3.2-2.3-3.8-2.8-7-5.6-10-9.6-5.4-7.5-8.2-16.9-7.8-26.2 0.4-9.3 4.1-18.4 10-25.1-0.3 0.3 0.4-0.7 1-1.3 0 0.2-0.1 0.5 0.6-0.2 0.6-0.7-0.2-0.2 0.1-0.6 6.2-6.8 17-12.3 28.1-12.5 0.4-0.3 1.1-0.7 1.9-0.5 0 0.1-0.5 0.1-0.5 0.1 1.1-0.1 2.1-0.1 2.6 0.1 0.1-0.1-0.4-0.2 0-0.2 0.7 0.2 0.9 0 1.3 0.2-0.3 0-0.6 0-0.8 0.1 2.5 0 4.1 0.6 6.6 0.8-1.3-0.3-1.6-0.3-2.6-0.6 1.1 0.2 1.6 0.4 2.1 0.3-0.2 0-0.1-0.3 0.1-0.2 2 0.5 2.2 0.7 4.3 1.4 0.2-0.2-0.9-0.3-1.2-0.6 2 0.7 3.8 1.2 5 2-0.4-0.3-1.6-0.7-2.5-1.1-0.1 0.1 0.3 0.2 0.4 0.4-1-0.5-2.4-1-3.8-1.2 1.2 0.3 2 0.7 2.5 0.9-1.1-0.2-2.5-0.9-4.1-1.2 2.6 0.8 7.5 2.6 10.5 4.2-1.1-0.7-2.4-1.2-3.1-1.6 0.6 0.1 1.3 0.5 1.3 0.3 0.7 0.3 1.6 1 2.1 1.1-0.9-0.6-2.7-1.5-3.3-1.8 7.5 3.4 14.2 9.1 18.5 16.4 0.4 0.7 1 2.3 1.5 2.5-0.1-0.5-0.5-0.8-0.9-1.6 0.2 0 0.2-0.3 0-0.6-0.4-0.5 0 0.4-0.4-0.1-1.8-3.3-4-6.2-7.4-9.4 1.9 1.8 0.5 0.5 0.1-0.1 2.6 2.3 5.6 6.2 6.9 8.2-0.2-0.3-0.3-0.5-0.2-0.5 2.4 4.1 3.9 7.8 5.4 13.1 0.1 0.1 0-0.4 0.2-0.1 1 4.2 1.3 7.7 1.2 10.9 0.8-5.4-1-13.8-4.2-20.4-0.4-0.8-0.4-0.2-0.8-1.1 0-0.3-0.3-0.9-0.5-1.3-4-6.6-8.9-11.3-14.7-15 0.4 0.2 1.2 0.8 1.2 0.7-10.8-7.1-23.3-8.1-33.6-5.9-0.7 0.3-1 0.6-1.8 1 1.5-0.5 2.4-0.6 3.8-0.9 0.3-0.3-1.3 0.1-0.6-0.2 0.1 0.1 1.4-0.2 1.7-0.1 0 0.1-0.4 0.2-0.5 0.3 3.3-0.7 6.7-0.8 9.6-0.6-1.7 0.1-4.8-0.2-5.8 0.3 1-0.1 2.4-0.2 3.3-0.1-1.2 0-3.4 0.1-4.4 0.2-0.1-0.1 1.6-0.3 0.5-0.3-0.5 0.1-1.3 0.1-1.6 0.4-8.6 0.8-17 5.3-22.9 10.6-1.2 1-2.6 2.1-3.5 3.2-2.2 2.5-3.6 5-5.2 7.2 1-2.1 3.2-5.3 5.8-8 2.6-2.7 5.4-5 6.9-6.2 0 0.4 2.4-1.5 3.3-2.1-0.6 0.5 0.4-0.2 0.6-0.1 3.2-1.9 5.8-2.6 8.7-3.7-0.7 0.2-1.3 0.4-1.4 0.3 0.7-0.2 1.1-0.4 1-0.5-2.8 0.8-7.2 2.7-10.7 4.8 6.3-4.3 14.3-6.9 22.2-7 7.9-0.2 15.6 1.8 21.7 5 4.1 1.8 8 5.1 11.1 8.3 0.9 0.8 0.2-0.2 1.5 1.2-0.4-0.2-0.7-0.4-0.2 0.2 0.8 0.9-0.2-0.7 1.1 0.9-0.1 0-0.5-0.5-0.5-0.3 3.5 3.1 6.2 8.7 7.8 12.4-0.4-1.5-1.4-3.6-2.2-5.1 2.4 4.4 3.2 7 4.2 10.9 0.4 0.3-0.2-1.4 0.2-0.6 0.1 0.6 0.2 2.5 0.6 2.8-0.3-1.9-0.8-4.2-1.2-4.6 0.3 0.2-0.5-2.3-1-2.9-0.2-1.6-1.6-4.4-2.8-6.5-4.3-8.4-12-15.3-20.6-19.1 0-0.2-0.5-0.4-0.7-0.6-8.5-3.6-18.7-4.6-28.5-2.3-9.9 2.4-19.2 8.1-25.8 16.3 0.3-1 2.8-2.9 2.9-3.7-2.9 3.1-6 7.2-8.1 11.6-2.2 4.4-3.4 8.9-3.9 12.2" fill="#ff4136" fill-rule="nonzero" stroke="none" stroke-width="1" stroke-linecap="butt" stroke-linejoin="miter" stroke-miterlimit="10" stroke-dasharray="" stroke-dashoffset="0" font-family="none" font-weight="none" font-size="none" text-anchor="none" style="mix-blend-mode: normal" data-fill-palette-color="tertiary"></path></g><g transform="matrix(1,0,0,1,77.81911340169937,90)"><svg viewBox="0 0 164.36177319660126 180" height="180" width="164.36177319660126"><g><svg viewBox="0 0 164.36177319660126 180" height="180" width="164.36177319660126"><g><svg viewBox="0 0 224 245.31251528767123" height="180" width="164.36177319660126"><g transform="matrix(1,0,0,1,0,148.27141939726027)"><svg viewBox="0 0 224 97.04109589041096" height="97.04109589041096" width="224"><g id="textblocktransform"><svg viewBox="0 0 224 97.04109589041096" height="97.04109589041096" width="224" id="textblock"><g><svg viewBox="0 0 224 97.04109589041096" height="97.04109589041096" width="224"><g transform="matrix(1,0,0,1,0,0)"><svg width="224" viewBox="0.7 -37.75 87.6 37.95" height="97.04109589041096" data-palette-color="#ff4136"><path d="M22.15-12.35Q22.15-9.55 21.08-7.28 20-5 18.18-3.35 16.35-1.7 13.88-0.8 11.4 0.1 8.55 0.1L8.55 0.1Q6.55 0.1 4.55-0.98 2.55-2.05 0.7-4.4L0.7-4.4 4.4-11.65Q4.75-11 5.45-10.33 6.15-9.65 7.03-9.15 7.9-8.65 8.78-8.33 9.65-8 10.35-8L10.35-8Q10.95-8 11.6-8.2 12.25-8.4 12.8-8.8 13.35-9.2 13.68-9.73 14-10.25 14-10.95L14-10.95Q14-12.15 13.23-13.18 12.45-14.2 11.3-15.13 10.15-16.05 8.8-17 7.45-17.95 6.33-19 5.2-20.05 4.4-21.35 3.6-22.65 3.6-24.25L3.6-24.25Q3.6-26.85 5.15-29.1 6.7-31.35 9.03-32.98 11.35-34.6 14.1-35.55 16.85-36.5 19.3-36.5L19.3-36.5Q20.65-36.5 21.85-36.18 23.05-35.85 23.93-35.13 24.8-34.4 25.33-33.3 25.85-32.2 25.85-30.55L25.85-30.55Q25.85-29.85 25.73-29.15 25.6-28.45 25.5-27.65L25.5-27.65 18.25-25.55Q18.35-25.95 18.43-26.35 18.5-26.75 18.5-27.15L18.5-27.15Q18.5-28.65 17.98-29.33 17.45-30 16.6-30L16.6-30Q16.2-30 15.63-29.7 15.05-29.4 14.48-28.93 13.9-28.45 13.5-27.8 13.1-27.15 13.1-26.4L13.1-26.4Q13.1-25.2 13.78-24.4 14.45-23.6 15.45-22.9 16.45-22.2 17.63-21.48 18.8-20.75 19.8-19.6 20.8-18.45 21.48-16.73 22.15-15 22.15-12.35L22.15-12.35ZM28.25-0.85L20-0.3Q22.2-6.95 24.2-13.35L24.2-13.35Q25.05-16.05 25.95-19 26.85-21.95 27.75-24.85 28.65-27.75 29.42-30.45 30.2-33.15 30.8-35.45L30.8-35.45Q33.55-35.45 36-35.75 38.45-36.05 41.3-36.3L41.3-36.3Q41.15-35.2 40.97-33.83 40.8-32.45 40.57-30.95 40.35-29.45 40.1-27.85 39.85-26.25 39.5-23.75 39.15-21.25 38.55-17.5L38.55-17.5 39.2-17.5Q40.65-21.3 41.6-23.83 42.55-26.35 43.15-27.95 43.75-29.55 44.37-31.08 45-32.6 45.57-33.98 46.15-35.35 46.65-36.4L46.65-36.4Q47.9-36.5 49-36.65 50.1-36.8 51.2-36.98 52.3-37.15 53.42-37.33 54.55-37.5 55.9-37.75L55.9-37.75Q55.4-34.85 54.95-31.8 54.5-28.75 54.15-25.73 53.8-22.7 53.47-19.75 53.15-16.8 52.9-14.15L52.9-14.15Q52.3-7.95 51.85-2.05L51.85-2.05 43.15-0.5Q43.15-0.75 43.22-1.85 43.3-2.95 43.42-4.55 43.55-6.15 43.77-8.1 44-10.05 44.22-12 44.45-13.95 44.7-15.78 44.95-17.6 45.2-18.9L45.2-18.9 44.75-18.9Q44.05-16.8 43.2-14.48 42.35-12.15 41.47-9.75 40.6-7.35 39.75-5.05 38.9-2.75 38.25-0.65L38.25-0.65Q36.5-0.6 35.25-0.53 34-0.45 32.35-0.35L32.35-0.35 33.95-18.9 33.2-18.9Q33.1-18.25 32.7-16.73 32.3-15.2 31.77-13.23 31.25-11.25 30.65-9.13 30.05-7 29.52-5.18 29-3.35 28.65-2.18 28.3-1 28.25-0.85L28.25-0.85ZM64.55-1.65L54.15 0.2 57.95-35.3Q60.3-35.4 62.37-35.77 64.45-36.15 66.5-36.3L66.5-36.3Q66.5-36.25 66.34-35.27 66.2-34.3 65.95-32.73 65.7-31.15 65.4-29.18 65.09-27.2 64.52-23.75 63.95-20.3 63-14.2L63-14.2 63.75-14.2Q65.05-18.8 65.9-21.73 66.75-24.65 67.27-26.48 67.8-28.3 68.27-30 68.75-31.7 69.17-33.15 69.59-34.6 69.84-35.6L69.84-35.6 70.3-35.6Q71.2-35.6 72.12-35.7 73.05-35.8 73.87-35.93 74.7-36.05 75.59-36.25L75.59-36.25Q75.5-35.8 75.37-34.4 75.25-33 75.05-31.03 74.84-29.05 74.65-26.68 74.45-24.3 74.25-22.03 74.05-19.75 73.87-17.7 73.7-15.65 73.55-14.2L73.55-14.2 74.45-14.2 79.2-35.7Q80.9-35.95 82.55-36.15L82.55-36.15Q84-36.35 85.55-36.55 87.09-36.75 88.3-37L88.3-37Q87.55-34.9 86.8-32.33 86.05-29.75 85.25-26.9 84.45-24.05 83.72-21.15 83-18.25 82.3-15.55L82.3-15.55Q80.7-9.15 79.2-2.4L79.2-2.4 67.9-0.5 70.09-19.8 69.5-19.8 64.55-1.65Z" opacity="1" transform="matrix(1,0,0,1,0,0)" fill="#ff4136" class="wordmark-text-0" data-fill-palette-color="primary" id="text-0"></path></svg></g></svg></g></svg></g></svg></g><g transform="matrix(1,0,0,1,44.3867228625796,0)"><svg viewBox="0 0 135.2265542748408 134.11079452054796" height="134.11079452054796" width="135.2265542748408"><g><svg xmlns="http://www.w3.org/2000/svg" xmlns:xlink="http://www.w3.org/1999/xlink" version="1.1" x="0" y="0" viewBox="0.7534958055897398 0.8368608799048752 46.64803392980818 46.263139120095126" enable-background="new 0 0 48 48" xml:space="preserve" height="134.11079452054796" width="135.2265542748408" class="icon-icon-0" data-fill-palette-color="accent" id="icon-0"><g fill="#ff4136" data-fill-palette-color="accent"><g fill="#ff4136" data-fill-palette-color="accent"><g fill="#ff4136" data-fill-palette-color="accent"><path fill="#ff4136" d="M0.9 2.4C1.3 11.2 1.3 20.1 1.3 29c0 2.1-0.8 11.5 2.9 11.7 8.7 0.6 17.6 0.1 26.3 0.1 2.4 0 14.7 1.5 15.6-1.8 2.1-7.3 1.1-16.1 0.8-23.6-0.2-4.2-0.4-8.5-0.6-12.7 0-0.9-0.4-1.1-1.2-1.3-3.4-1-8.2-0.1-11.7-0.2-4.5-0.1-9-0.1-13.5-0.2C15.4 1.1 10.9 1 6.4 1c-1.7 0-4.2-0.7-5.5 0.8C0.4 2.3 1.3 3.2 1.8 2.6c1.1-1.2 7-0.4 8.5-0.3 3.2 0 6.4 0.1 9.6 0.1 6.4 0.1 12.9 0.2 19.3 0.3 1.3 0 2.6 0 3.9 0.1 2.8 0 2.2 3.9 2.3 5.5 0.2 3.1 0.3 6.1 0.4 9.2 0.3 6.2 0.3 12.5-0.3 18.7-0.5 5.4-15.4 3.6-18.8 3.6-6.5 0-13 0-19.4 0-5.1 0-4.4-4.7-4.6-8.6-0.1-3.2 0-6.4 0-9.6 0-6.3-0.2-12.7-0.4-19C2.2 1.5 0.9 1.5 0.9 2.4L0.9 2.4z" data-fill-palette-color="accent"></path></g></g><g fill="#ff4136" data-fill-palette-color="accent"><g fill="#ff4136" data-fill-palette-color="accent"><path fill="#ff4136" d="M17.2 10.2c-1.6 1.4-3.8 2.1-5.5 3.3-1 0.7-2.9 2.1-3.3 3.4-0.2 0.9 0.9 1.4 1.5 1.8 2.4 1.5 4.5 3.3 6.4 5.3 0.6 0.6 1.4-0.3 0.9-0.9-1.2-1.2-2.4-2.4-3.7-3.5-0.5-0.4-3.8-2.4-3.3-3.1 2.2-2.6 5.5-3.4 8-5.6C18.7 10.5 17.8 9.6 17.2 10.2L17.2 10.2z" data-fill-palette-color="accent"></path></g></g><g fill="#ff4136" data-fill-palette-color="accent"><g fill="#ff4136" data-fill-palette-color="accent"><path fill="#ff4136" d="M27.2 6.7c-2.7 7.2-5.2 14.5-7.6 21.9-0.3 0.8 1 1.1 1.2 0.3 2.4-7.3 4.9-14.6 7.6-21.9C28.7 6.3 27.5 5.9 27.2 6.7L27.2 6.7z" data-fill-palette-color="accent"></path></g></g><g fill="#ff4136" data-fill-palette-color="accent"><g fill="#ff4136" data-fill-palette-color="accent"><path fill="#ff4136" d="M29.3 11.6c1.5 1.1 2.9 2.3 4.4 3.4 0.9 0.7 1.8 1.4 2.6 2.1 1.3 1 0.7 0.9-0.4 1.7-2.4 1.7-4.3 3.9-6 6.3-0.5 0.7 0.6 1.3 1.1 0.6 1.4-2 3.1-3.8 5-5.4 0.4-0.3 2.7-1.5 2.7-2.4 0-1.2-1.5-1.9-2.3-2.5-2.1-1.6-4.1-3.2-6.2-4.8C29.5 10.2 28.6 11.1 29.3 11.6L29.3 11.6z" data-fill-palette-color="accent"></path></g></g><g fill="#ff4136" data-fill-palette-color="accent"><g fill="#ff4136" data-fill-palette-color="accent"><path fill="#ff4136" d="M2.3 31.9c14.8 0.3 29.5 0.2 44.3-0.3 0.8 0 0.8-1.3 0-1.3-14.8 0.6-29.5 0.7-44.3 0.3C1.5 30.6 1.5 31.9 2.3 31.9L2.3 31.9z" data-fill-palette-color="accent"></path></g></g><g fill="#ff4136" data-fill-palette-color="accent"><g fill="#ff4136" data-fill-palette-color="accent"><path fill="#ff4136" d="M21.1 36.6c1.1 0 2.2 0 3.3 0 0.8 0 0.8-1.3 0-1.3-1.1 0-2.2 0-3.3 0C20.3 35.4 20.3 36.6 21.1 36.6L21.1 36.6z" data-fill-palette-color="accent"></path></g></g><g fill="#ff4136" data-fill-palette-color="accent"><g fill="#ff4136" data-fill-palette-color="accent"><path fill="#ff4136" d="M23.8 40.3c-0.3 1.8-0.4 3.6-0.2 5.5 0.1 0.8 1.3 0.8 1.3 0-0.2-1.7-0.2-3.4 0.1-5.1C25.2 39.8 24 39.5 23.8 40.3L23.8 40.3z" data-fill-palette-color="accent"></path></g></g><g fill="#ff4136" data-fill-palette-color="accent"><g fill="#ff4136" data-fill-palette-color="accent"><path fill="#ff4136" d="M15.1 47.1c6.9 0 13.8 0 20.6 0 0.8 0 0.8-1.3 0-1.3-6.9 0-13.8 0-20.6 0C14.3 45.8 14.3 47.1 15.1 47.1L15.1 47.1z" data-fill-palette-color="accent"></path></g></g></g></svg></g></svg></g><g></g></svg></g></svg></g></svg></g></svg></g><defs></defs></svg><rect width="320" height="360" fill="none" stroke="none" visibility="hidden"></rect></g></svg></g></svg>